PathFileType	4	(X/Y/Z)	C:\Users\WrightLab\Desktop\Jo\P2_Trial35.trc
DataRate	CameraRate	NumFrames	NumMarkers	Units	OrigDataRate	OrigDataStartFrame	OrigNumFrames
100.00	100.00	      15	19	mm	100.00	575	      1148
Frame#	Time	Headset_Front			Headset_Back			Headset_Left			Headset_Right			Left_Shoulder			Right_Shoulder			Sternum			C7			Left Elbow			Right Elbow			Left Wrist			Right Wrist			Left ASIS			Right ASIS			S2			Left Knee			Right Knee			Left Ankle			Right Ankle			
		X1	Y1	Z1	X2	Y2	Z2	X3	Y3	Z3	X4	Y4	Z4	X5	Y5	Z5	X6	Y6	Z6	X7	Y7	Z7	X8	Y8	Z8	X9	Y9	Z9	X10	Y10	Z10	X11	Y11	Z11	X12	Y12	Z12	X13	Y13	Z13	X14	Y14	Z14	X15	Y15	Z15	X16	Y16	Z16	X17	Y17	Z17	X18	Y18	Z18	X19	Y19	Z19	

575	5.740	26.87057	1464.55432	1097.34912	24.46983	1694.07007	1305.27112	-84.95366	1579.52173	1236.11938				-99.44868	1440.45435	1280.84961	205.16122	1463.71423	1381.98926	85.36117	1329.48950	1274.36951	27.58623	1448.94580	1437.51404	-195.56615	1154.43213	1308.58228	322.09341	1197.72546	1511.78870	-190.43866	1173.47546	1149.29761	351.68842	1157.32593	1317.64075	56.56658	1029.18518	1245.23669	175.05489	1008.98578	1306.46729	-21.79180	964.85236	1502.62451	0.34614	471.68204	1212.28223	178.98471	561.18762	1560.38074	46.44640	133.44180	1139.90002	111.02444	212.75542	1751.94116	
576	5.750	25.79183	1465.36572	1089.47241	24.16081	1695.06775	1296.84790	-86.03518	1580.32117	1228.44922				-99.45551	1441.54077	1273.35315	205.56245	1464.96021	1373.56274	85.53211	1330.96484	1265.74402	28.70369	1449.58411	1428.70703	-195.49390	1155.41187	1299.68469	322.15436	1198.48181	1503.16846	-190.04764	1175.44897	1139.71680	352.44336	1158.53369	1307.97681	56.27948	1030.50623	1236.32239	175.39479	1011.03711	1295.95740	-20.75204	966.06897	1495.46069	-1.01049	472.79898	1204.10681	182.75697	558.78033	1540.43323	45.80288	131.53789	1138.02661	113.75656	220.64546	1732.47070	
577	5.760	24.76165	1466.33899	1081.59729	23.31298	1696.29333	1288.92346	-86.70563	1581.03943	1220.90027	203.25002	1434.28528	1150.74866	-99.64735	1442.73206	1265.97876	206.27419	1466.29822	1364.84460	85.67861	1332.66248	1256.52893	29.03885	1450.28662	1421.19702	-192.87328	1154.62024	1291.08118	321.01450	1199.07471	1493.82983	-193.97050	1178.67529	1130.66235	352.67792	1159.81738	1298.82898	56.12232	1031.17395	1227.63391	176.29276	1012.56866	1287.39563	-19.86430	966.94043	1487.03833	-2.20911	472.80701	1196.70251	185.98755	555.60907	1518.49316	46.72606	129.31268	1140.50940	117.59367	230.11578	1713.36804	
578	5.770	23.91003	1467.43481	1073.56824	22.33863	1697.78125	1281.09180	-87.30061	1581.96973	1213.62317				-99.85416	1444.06665	1258.95508	206.23581	1467.57043	1355.98474	85.33233	1334.25525	1248.12927	29.73061	1451.63171	1413.32727	-192.77838	1155.74316	1282.16504	320.52133	1199.44373	1485.21887	-190.76900	1180.61548	1121.93896	353.00067	1161.90527	1290.06641	56.05552	1031.97693	1219.80225	175.81282	1014.13007	1276.93884	-18.30561	967.98895	1477.78088	-3.91415	473.00775	1189.93042	189.35815	552.75116	1497.11951	44.37553	130.46719	1136.54846	120.21368	235.59489	1693.96436	
579	5.780	23.19757	1469.20618	1066.33728	21.26500	1698.90332	1273.35181	-88.39220	1583.29993	1206.37061				-100.22376	1445.48474	1252.10730	205.76817	1468.25122	1350.03003	84.99081	1335.51892	1240.57068	30.15624	1452.73584	1405.31396	-192.02147	1156.73340	1273.37842	321.27103	1200.42603	1475.91980	-193.19408	1184.36743	1114.19165	352.45383	1161.93054	1280.52563	56.30186	1033.37219	1209.39795	176.28432	1015.87848	1268.84924	-17.78017	968.59711	1470.57764	-6.92616	473.54196	1182.55688	193.07733	550.14581	1476.05786	43.09196	130.74492	1134.70239	124.28471	242.65645	1672.94775	
580	5.790	22.13342	1470.74866	1058.16028	20.58280	1700.44250	1265.90503	-88.99747	1584.47888	1199.24683				-100.48180	1447.03345	1245.32971	206.32858	1470.05994	1341.40417	84.50277	1337.46838	1232.43079	30.41328	1453.80090	1397.96399	-192.60201	1158.12012	1264.83850				-190.96571	1185.53833	1103.51868	353.01331	1164.07434	1270.42639	56.63445	1034.39136	1201.74622	176.59996	1017.21240	1260.54260	-16.06472	970.27216	1463.49854	-9.25124	473.93597	1177.14673	197.15125	548.57050	1454.75842	41.96028	130.98318	1134.07312	130.23703	248.42949	1652.48169	
581	5.800	21.07837	1471.94409	1050.97632	20.08641	1701.80933	1258.34326	-89.26698	1585.59399	1192.11206				-100.98875	1448.61450	1238.79333	206.37254	1471.44299	1333.33203	84.34278	1339.17883	1224.36841	31.12791	1454.70410	1390.26367	-192.49364	1159.57300	1256.50598	322.98306	1202.45154	1457.54102	-192.15762	1188.11646	1096.85706	353.42813	1165.68359	1261.55322	56.66076	1036.06238	1194.76892	177.18703	1019.09454	1250.78833	-15.77274	970.87469	1454.87378	-11.25119	474.25906	1171.13110	202.85780	548.96289	1433.52380	40.74615	130.25826	1133.39722	136.75900	252.32295	1631.07849	
582	5.810	20.20146	1473.58936	1043.49622	19.40508	1703.51099	1251.08545	-89.68420	1586.92017	1185.05054				-101.24388	1450.33423	1232.25073	206.98553	1472.82361	1324.82080	83.89735	1340.52527	1217.25952	31.45772	1456.33215	1383.11487	-193.29671	1161.38928	1248.47339	321.83441	1202.50427	1446.74597	-192.98706	1190.92761	1089.19128	351.85214	1166.42749	1251.00928	56.08278	1036.19324	1185.51489	177.72092	1020.41901	1243.30615	-13.89617	972.36023	1447.97485	-13.56680	475.12668	1165.96204	208.83968	549.44519	1411.01770	39.12174	129.57945	1132.37012	143.10767	256.24948	1609.83496	
583	5.820	19.43855	1475.70679	1035.93860	18.44155	1705.33069	1243.71790	-90.29015	1588.44617	1178.07495				-101.57642	1452.07007	1225.87366	207.10103	1474.63281	1316.42651	83.03764	1342.02026	1210.25684	32.42295	1457.65894	1375.86475	-192.42210	1162.51184	1240.62073	321.64597	1203.44617	1437.49158	-196.07071	1195.11658	1082.14050	352.15829	1168.55786	1241.20825	55.77695	1038.74927	1177.44580	177.54094	1021.50690	1234.24170	-12.89471	974.76025	1441.05322	-16.58500	475.62939	1161.43799	215.12027	550.87006	1389.62146	37.48175	129.12440	1133.13379	151.05348	259.70691	1589.19849	
584	5.830	18.60718	1477.02393	1029.32922	18.33808	1707.16479	1236.40735	-90.95118	1590.28052	1171.05859				-102.13480	1453.96045	1219.67004	207.66609	1476.41150	1308.27100	82.75352	1343.53577	1202.30652	32.79611	1459.07458	1368.94409	-192.37761	1163.98596	1233.01929	322.44333	1204.52271	1427.54688	-196.10817	1197.58704	1074.51733	352.36264	1170.22192	1230.91772	55.41685	1039.91370	1171.32703	177.07898	1024.14722	1224.11182	-11.54079	975.86420	1433.84509	-18.77188	475.59433	1156.32471	221.77908	553.56000	1367.95996	36.45967	128.93578	1132.65332	160.06781	262.70663	1567.22815	
585	5.840	17.65845	1478.53442	1022.15179	18.23112	1708.96973	1229.15735	-91.41657	1592.00964	1164.02124				-102.44642	1456.13037	1212.50684	207.61067	1478.18945	1299.90369	81.43175	1345.03320	1196.13538	33.02943	1460.46338	1360.73352	-192.84325	1166.44446	1225.79688	322.72610	1206.07202	1417.76465	-194.98708	1198.63513	1067.79700	351.45468	1172.61316	1220.80334	53.62342	1042.35815	1162.21497	177.53014	1025.62134	1217.89929	-9.45233	977.70575	1427.07361	-21.48504	476.37421	1152.29089	228.50325	557.03375	1346.86340	35.11971	127.07888	1132.55029	168.96930	265.42184	1545.00061	
586	5.850	17.17616	1480.32654	1014.90106	18.13470	1710.45215	1222.03308	-92.12598	1594.04468	1157.12573				-103.04577	1457.54651	1207.46851	208.19966	1479.84106	1291.55493	80.82711	1346.81372	1188.61304	34.05016	1462.25562	1353.35693	-193.71629	1167.71814	1218.87903	322.54898	1206.69824	1407.59949	-196.59727	1201.94104	1060.42200	350.41647	1173.02380	1210.75964	52.42237	1044.06494	1154.71484	176.17712	1026.71277	1206.71484	-7.86488	979.17474	1419.78479	-23.67130	476.63843	1148.07190	235.53625	560.13025	1325.63855	32.55917	127.66899	1132.99268	179.13124	267.14313	1523.24976	
587	5.860	16.25894	1481.65649	1008.21259	17.88463	1712.29443	1214.86768	-92.58403	1595.75049	1149.98083				-103.61747	1459.29309	1201.45801	208.23448	1481.57898	1283.06030	79.52758	1348.29883	1181.36670	34.64314	1463.47009	1346.47534	-193.49799	1169.47656	1212.04236	323.01620	1207.94177	1397.38367	-198.79831	1205.40698	1053.94373	349.52234	1175.05579	1201.39111	51.49276	1046.35742	1146.29614	175.48291	1029.33423	1196.52039	-4.42682	980.19232	1412.13269	-26.17390	476.81485	1144.84363	241.74452	564.21863	1304.79871	31.81633	128.00798	1133.07031	189.37898	268.27487	1501.00281	
588	5.870	16.14464	1483.51575	1002.15082	17.01153	1714.30713	1207.73499	-93.21135	1597.85095	1142.87000				-104.40433	1461.06372	1195.60486	208.56670	1483.40784	1269.96118	78.62777	1350.34705	1174.00562	35.83226	1466.15247	1341.66614	-193.22087	1171.10144	1205.50635	322.87350	1208.86499	1387.43445	-200.43237	1207.93091	1047.61865	349.43967	1177.23669	1189.55383	49.46418	1047.38318	1140.67627	174.33328	1030.53442	1188.39661	-1.77256	980.74365	1406.30200	-27.70364	477.41263	1141.96838	248.42694	567.84747	1284.16919	29.71530	127.45982	1133.61084	198.89108	267.70599	1476.78918	
589	5.880	15.22205	1485.01917	994.18768	16.92660	1715.93188	1200.44763	-93.74208	1599.77673	1135.61096	202.85764	1457.59888	1078.96863	-105.12032	1462.71533	1189.82178	208.06161	1485.37158	1261.51880	77.78186	1351.51819	1167.30737	36.35648	1467.49524	1334.13660	-195.02620	1173.26306	1199.27466	325.02682	1211.35449	1377.79907	-199.31792	1208.93433	1040.73608	348.80774	1178.95154	1180.62207	48.12911	1049.14502	1133.44983	173.14708	1033.04724	1178.19214	0.08407	982.24347	1399.66260	-29.85753	477.88242	1139.55383	255.71092	572.35687	1263.54480	28.10156	127.39842	1133.26453	208.69179	266.56387	1452.96533	
